<svg width="34" height="35" viewBox="0 0 34 35" fill="none" xmlns="http://www.w3.org/2000/svg">
<rect width="34" height="35" fill="#F5F5F5"/>
<g id="Home Page - Mobile" clip-path="url(#clip0_0_1)">
<rect width="390" height="10907" transform="translate(-340 -59)" fill="#F7F7F8"/>
<g id="Header">
<g id="Navbar">
<path d="M34 53H-324V55H34V53Z" fill="#F1F1F3" mask="url(#path-1-inside-1_0_1)"/>
<g id="Container">
<g id="Icon">
<path id="Vector (Stroke)" fill-rule="evenodd" clip-rule="evenodd" d="M4.25 10.0625C4.25 9.4757 4.7257 9 5.3125 9H28.6875C29.2743 9 29.75 9.4757 29.75 10.0625C29.75 10.6493 29.2743 11.125 28.6875 11.125H5.3125C4.7257 11.125 4.25 10.6493 4.25 10.0625ZM4.25 17.5C4.25 16.9132 4.7257 16.4375 5.3125 16.4375H28.6875C29.2743 16.4375 29.75 16.9132 29.75 17.5C29.75 18.0868 29.2743 18.5625 28.6875 18.5625H5.3125C4.7257 18.5625 4.25 18.0868 4.25 17.5ZM15.9375 24.9375C15.9375 24.3507 16.4132 23.875 17 23.875H28.6875C29.2743 23.875 29.75 24.3507 29.75 24.9375C29.75 25.5243 29.2743 26 28.6875 26H17C16.4132 26 15.9375 25.5243 15.9375 24.9375Z" fill="#262626"/>
</g>
</g>
</g>
</g>
</g>
<defs>
<clipPath id="clip0_0_1">
<rect width="390" height="10907" fill="white" transform="translate(-340 -59)"/>
</clipPath>
</defs>
</svg>
